<svg width="96" height="96" viewBox="0 0 96 96" fill="none" xmlns="http://www.w3.org/2000/svg">
<path d="M42.1 66.2L70.4 37.9L65.8 33.4L42.1 57.1L30.1 45.1L25.6 49.6L42.1 66.2ZM48 88C42.5333 88 37.3667 86.95 32.5 84.85C27.6333 82.75 23.3833 79.8833 19.75 76.25C16.1167 72.6167 13.25 68.3667 11.15 63.5C9.05 58.6333 8 53.4667 8 48C8 42.4667 9.05 37.2667 11.15 32.4C13.25 27.5333 16.1167 23.3 19.75 19.7C23.3833 16.1 27.6333 13.25 32.5 11.15C37.3667 9.05 42.5333 8 48 8C53.5333 8 58.7333 9.05 63.6 11.15C68.4667 13.25 72.7 16.1 76.3 19.7C79.9 23.3 82.75 27.5333 84.85 32.4C86.95 37.2667 88 42.4667 88 48C88 53.4667 86.95 58.6333 84.85 63.5C82.75 68.3667 79.9 72.6167 76.3 76.25C72.7 79.8833 68.4667 82.75 63.6 84.85C58.7333 86.95 53.5333 88 48 88ZM48 82C57.4667 82 65.5 78.6833 72.1 72.05C78.7 65.4167 82 57.4 82 48C82 38.5333 78.7 30.5 72.1 23.9C65.5 17.3 57.4667 14 48 14C38.6 14 30.5833 17.3 23.95 23.9C17.3167 30.5 14 38.5333 14 48C14 57.4 17.3167 65.4167 23.95 72.05C30.5833 78.6833 38.6 82 48 82Z" fill="#F4CE14"/>
</svg>
